<?xml version="1.0" encoding="UTF-8" standalone="no"?>
<!-- Created with Inkscape (http://www.inkscape.org/) -->

<svg
   xmlns:dc="http://purl.org/dc/elements/1.1/"
   xmlns:cc="http://creativecommons.org/ns#"
   xmlns:rdf="http://www.w3.org/1999/02/22-rdf-syntax-ns#"
   xmlns:svg="http://www.w3.org/2000/svg"
   xmlns="http://www.w3.org/2000/svg"
   xmlns:sodipodi="http://sodipodi.sourceforge.net/DTD/sodipodi-0.dtd"
   xmlns:inkscape="http://www.inkscape.org/namespaces/inkscape"
   width="159.1075"
   height="32"
   id="svg2"
   version="1.1"
   inkscape:version="0.92.4 (fd57863, 2020-04-02)"
   sodipodi:docname="logo_leismore.svg">
  <title
     id="title2993">The Logo of Leismore</title>
  <defs
     id="defs4" />
  <sodipodi:namedview
     id="base"
     pagecolor="#ffffff"
     bordercolor="#666666"
     borderopacity="1.0"
     inkscape:pageopacity="0.0"
     inkscape:pageshadow="2"
     inkscape:zoom="7.1398269"
     inkscape:cx="79.553749"
     inkscape:cy="16"
     inkscape:document-units="px"
     inkscape:current-layer="layer1"
     showgrid="true"
     fit-margin-top="0"
     fit-margin-left="0"
     fit-margin-right="0"
     fit-margin-bottom="0"
     inkscape:window-width="1850"
     inkscape:window-height="1016"
     inkscape:window-x="70"
     inkscape:window-y="27"
     inkscape:window-maximized="1" />
  <metadata
     id="metadata7">
    <rdf:RDF>
      <cc:Work
         rdf:about="">
        <dc:format>image/svg+xml</dc:format>
        <dc:type
           rdf:resource="http://purl.org/dc/dcmitype/StillImage" />
        <dc:title>The Logo of Leismore</dc:title>
        <dc:date>2018-07-12</dc:date>
        <dc:creator>
          <cc:Agent>
            <dc:title>Winfred K. Qin</dc:title>
          </cc:Agent>
        </dc:creator>
        <dc:rights>
          <cc:Agent>
            <dc:title>Copyright 2018 Leismore Ltd. All rights reserved.</dc:title>
          </cc:Agent>
        </dc:rights>
        <dc:publisher>
          <cc:Agent>
            <dc:title>Leismore Ltd.</dc:title>
          </cc:Agent>
        </dc:publisher>
        <dc:identifier>https://lib.leismore.co/marketing/ci/logo/logo-leismore.svg</dc:identifier>
        <dc:language>en</dc:language>
        <dc:subject>
          <rdf:Bag>
            <rdf:li>Leismore</rdf:li>
            <rdf:li>Leismore Limited</rdf:li>
            <rdf:li>Leismore Ltd.</rdf:li>
            <rdf:li>Logo</rdf:li>
          </rdf:Bag>
        </dc:subject>
        <dc:relation />
      </cc:Work>
    </rdf:RDF>
  </metadata>
  <g
     inkscape:label="Layer 1"
     inkscape:groupmode="layer"
     id="layer1"
     transform="translate(6.4849853e-8,-1020.3623)">
    <g
       id="g851">
      <path
         inkscape:connector-curvature="0"
         d="m -6.4849853e-8,1020.3623 v 31.715 H 2.7277352 v -31.715 H -6.4849853e-8"
         id="path2992"
         style="font-style:normal;font-variant:normal;font-weight:normal;font-stretch:normal;font-size:40.71246719px;line-height:125%;font-family:'AR Gothic1 Medium Euro';-inkscape-font-specification:'AR Gothic1 Medium Euro';letter-spacing:0px;word-spacing:0px;fill:#ffffff;fill-opacity:1;stroke:none" />
      <path
         inkscape:connector-curvature="0"
         d="m 10.24173,1041.3292 h 17.424936 v -2.0356 c 0,-3.0535 -0.854964,-5.6184 -2.605598,-7.654 -1.750635,-1.9949 -4.152675,-2.972 -7.124682,-2.972 -3.01272,0 -5.455473,0.9771 -7.368957,2.9313 -1.9949086,2.1578 -3.0127223,5.2926 -3.0534347,9.3639 0,3.0127 0.8549635,5.5776 2.6055977,7.7353 1.913484,2.4021 4.681937,3.6234 8.264631,3.6642 2.564883,0 4.681935,-0.6514 6.391857,-1.9542 1.750635,-1.3028 2.605598,-3.0535 2.605598,-5.2519 h -2.687023 c 0,1.3027 -0.610688,2.3613 -1.791348,3.1348 -1.262085,0.8957 -2.76845,1.3435 -4.519084,1.3435 -2.483458,0 -4.478373,-0.8142 -5.94402,-2.402 -1.384223,-1.6285 -2.117049,-3.5827 -2.198473,-5.9033 m 0.08142,-2.687 c 0.284986,-2.0764 0.936387,-3.7456 2.035623,-4.9263 1.384222,-1.547 3.257,-2.3206 5.577608,-2.3613 2.157758,0 3.949111,0.7736 5.292621,2.3206 1.139948,1.3435 1.709923,3.0128 1.750636,4.967 H 10.32315"
         id="path2994"
         style="font-style:normal;font-variant:normal;font-weight:normal;font-stretch:normal;font-size:40.71246719px;line-height:125%;font-family:'AR Gothic1 Medium Euro';-inkscape-font-specification:'AR Gothic1 Medium Euro';letter-spacing:0px;word-spacing:0px;fill:#ffffff;fill-opacity:1;stroke:none" />
      <path
         sodipodi:nodetypes="ccccc"
         inkscape:connector-curvature="0"
         d="m 32.768445,1028.9526 c 3.084132,7.7075 -2.119409,15.0508 0,23.1247 h 2.687023 c -4.892256,-7.4113 4.312061,-18.133 0,-23.1247 h -2.687023"
         id="path2996"
         style="font-style:normal;font-variant:normal;font-weight:normal;font-stretch:normal;font-size:40.71246719px;line-height:125%;font-family:'AR Gothic1 Medium Euro';-inkscape-font-specification:'AR Gothic1 Medium Euro';letter-spacing:0px;word-spacing:0px;fill:#ffffff;fill-opacity:1;stroke:none" />
      <path
         inkscape:connector-curvature="0"
         d="m 49.44656,1028.6676 c -1.913484,0 -3.460561,0.2443 -4.722646,0.6921 -1.139948,0.4479 -2.157761,1.14 -3.012722,2.1171 -0.692112,0.7735 -1.058524,1.8727 -1.058524,3.2977 0,1.2621 0.407125,2.3613 1.180661,3.2163 0.732824,0.8549 1.994913,1.5877 3.826972,2.1984 2.076334,0.6921 4.437662,1.5471 7.124682,2.5242 2.076333,0.7328 3.175572,1.6692 3.256997,2.8092 0,0.8956 -0.529263,1.7506 -1.547074,2.5648 -1.18066,0.9771 -2.890587,1.4657 -5.048346,1.4657 -1.913484,0 -3.582698,-0.3664 -4.966921,-1.14 -1.262085,-0.6921 -1.913486,-2.1577 -1.954198,-4.3155 h -2.727735 c 0,1.9135 0.447838,3.542 1.302799,4.8855 0.773536,1.0585 1.750637,1.8728 2.931297,2.4021 1.34351,0.6514 3.134863,0.9771 5.414758,0.9771 2.076334,0 3.745549,-0.3257 5.007634,-0.9364 1.34351,-0.57 2.361324,-1.3028 3.094147,-2.2392 0.773537,-0.9771 1.180662,-2.1171 1.180662,-3.4606 -0.04071,-1.3435 -0.407125,-2.4427 -1.139949,-3.2977 -0.814249,-0.9364 -2.198475,-1.7506 -4.193384,-2.4427 -2.076334,-0.6921 -4.519087,-1.5878 -7.368957,-2.6056 -1.750634,-0.6514 -2.64631,-1.4657 -2.687023,-2.4835 0,-0.9364 0.569976,-1.7913 1.669212,-2.4835 1.221372,-0.7735 2.687024,-1.1399 4.437658,-1.1806 1.50636,0 2.809162,0.4071 3.867685,1.1806 1.058523,0.7736 1.587786,1.9135 1.628499,3.3385 h 2.727735 c 0,-1.6692 -0.366413,-3.0128 -1.099237,-3.9899 -0.692111,-0.977 -1.669212,-1.7506 -2.890585,-2.2798 -1.262085,-0.5293 -2.687024,-0.8143 -4.234097,-0.8143"
         id="path2998"
         style="font-style:normal;font-variant:normal;font-weight:normal;font-stretch:normal;font-size:40.71246719px;line-height:125%;font-family:'AR Gothic1 Medium Euro';-inkscape-font-specification:'AR Gothic1 Medium Euro';letter-spacing:0px;word-spacing:0px;fill:#ffffff;fill-opacity:1;stroke:none" />
      <path
         inkscape:connector-curvature="0"
         d="m 76.730276,1039.4157 v 12.6616 h 2.727736 v -13.883 c 0.08142,-1.2621 0.284987,-2.3613 0.610687,-3.257 0.366411,-1.0585 1.017812,-1.9542 2.035623,-2.7277 0.773536,-0.6107 1.79135,-0.8957 2.97201,-0.9364 1.913484,0 3.379136,0.57 4.315522,1.6692 0.854961,1.0178 1.302799,2.6463 1.302799,4.8448 v 14.2901 h 2.687022 v -14.2901 c 0,-2.8092 -0.3257,-4.7227 -0.977099,-5.8219 -0.651399,-1.0585 -1.506362,-1.9135 -2.564885,-2.5242 -1.139948,-0.6106 -2.44275,-0.9363 -3.94911,-0.9363 -1.994908,0 -3.826973,0.6106 -5.45547,1.832 -0.447837,0.3664 -1.017813,1.0993 -1.709924,2.1985 -0.122137,-0.2036 -0.203562,-0.3664 -0.284987,-0.57 -0.651399,-1.0585 -1.506362,-1.9135 -2.524173,-2.5242 -1.18066,-0.6106 -2.524174,-0.9363 -3.949109,-0.9363 -1.913484,0 -3.582699,0.5292 -5.007634,1.6285 -0.529261,0.3664 -1.017812,0.9771 -1.506361,1.832 v -3.0127 h -2.727735 v 23.1247 h 2.727735 v -13.883 c 0.08142,-1.2621 0.284988,-2.3613 0.651399,-3.257 0.366412,-1.0585 1.058525,-1.9542 1.994911,-2.7277 0.854961,-0.6107 1.872775,-0.8957 3.094148,-0.9364 1.913484,0 3.297711,0.57 4.234096,1.6692 0.854961,1.0178 1.302799,2.6463 1.302799,4.8448 v 1.6285"
         style="font-style:normal;font-variant:normal;font-weight:normal;font-stretch:normal;font-size:40.71246719px;line-height:125%;font-family:'AR Gothic1 Medium Euro';-inkscape-font-specification:'AR Gothic1 Medium Euro';letter-spacing:0px;word-spacing:0px;fill:#ff7777;fill-opacity:1;stroke:none"
         id="path3000" />
      <path
         inkscape:connector-curvature="0"
         d="m 97.367683,1040.2299 c 0,2.7278 0.447838,4.967 1.302798,6.7176 0.854961,1.7099 2.035629,3.0127 3.541989,3.9084 1.62849,0.9771 3.54198,1.4656 5.69974,1.5064 2.40203,0 4.43766,-0.57 6.14758,-1.71 1.38423,-0.8956 2.48347,-2.2392 3.29771,-4.0712 0.73283,-1.5064 1.09924,-3.542 1.09924,-6.1069 0,-2.7277 -0.52926,-5.089 -1.6285,-7.0432 -0.81425,-1.425 -1.99491,-2.6056 -3.5827,-3.542 -1.42493,-0.8143 -3.17557,-1.2214 -5.21119,-1.2214 -2.23918,0 -4.07125,0.4478 -5.45547,1.3028 -1.58779,1.0585 -2.849875,2.3206 -3.704836,3.7863 -0.977098,1.7506 -1.465649,3.9084 -1.506361,6.4732 m 2.727737,0 c 0,-2.1577 0.36641,-3.9084 1.13995,-5.2112 0.69211,-1.1399 1.58778,-2.0356 2.64631,-2.687 1.05852,-0.6514 2.44275,-0.9771 4.15267,-0.9771 1.50636,0 2.89059,0.4072 4.15267,1.1807 0.93639,0.57 1.75064,1.4656 2.52417,2.7277 0.6514,1.1807 0.9771,2.9313 1.01782,5.2112 0,1.9949 -0.24428,3.6641 -0.77354,4.9262 -0.52926,1.2214 -1.34351,2.2392 -2.52417,3.0127 -1.13995,0.8143 -2.64632,1.2214 -4.51909,1.2214 -1.54707,0 -2.9313,-0.3664 -4.11196,-1.1399 -1.05852,-0.6921 -1.9542,-1.71 -2.64631,-2.972 -0.69211,-1.3843 -1.05852,-3.1349 -1.05852,-5.2927"
         style="font-style:normal;font-variant:normal;font-weight:normal;font-stretch:normal;font-size:40.71246719px;line-height:125%;font-family:'AR Gothic1 Medium Euro';-inkscape-font-specification:'AR Gothic1 Medium Euro';letter-spacing:0px;word-spacing:0px;fill:#ff7777;fill-opacity:1;stroke:none"
         id="path3002" />
      <path
         inkscape:connector-curvature="0"
         d="m 122.4033,1038.9679 v 13.1094 h 2.72774 v -13.6794 c 0.20356,-1.3028 0.93639,-2.7278 2.2799,-4.3155 1.54707,-1.8728 3.21628,-2.8092 5.04834,-2.8499 1.66921,0 2.9313,0.4885 3.78626,1.5063 l 1.87277,-1.9949 c -1.01781,-1.3842 -2.80916,-2.0763 -5.33333,-2.0763 -2.89058,0 -5.33333,1.4249 -7.32824,4.2341 -0.12214,0.1221 -0.20357,0.2443 -0.3257,0.4478 v -4.3969 h -2.72774 v 10.0153"
         style="font-style:normal;font-variant:normal;font-weight:normal;font-stretch:normal;font-size:40.71246719px;line-height:125%;font-family:'AR Gothic1 Medium Euro';-inkscape-font-specification:'AR Gothic1 Medium Euro';letter-spacing:0px;word-spacing:0px;fill:#ff7777;fill-opacity:1;stroke:none"
         id="path3004" />
      <path
         inkscape:connector-curvature="0"
         d="m 141.68256,1041.3292 h 17.42494 v -2.0356 c 0,-3.0535 -0.85497,-5.6184 -2.6056,-7.654 -1.75064,-1.9949 -4.15268,-2.972 -7.12468,-2.972 -3.01272,0 -5.45548,0.9771 -7.36896,2.9313 -1.99491,2.1578 -3.01272,5.2926 -3.05343,9.3639 0,3.0127 0.85496,5.5776 2.60559,7.7353 1.91349,2.4021 4.68194,3.6234 8.26463,3.6642 2.56489,0 4.68194,-0.6514 6.39186,-1.9542 1.75064,-1.3028 2.6056,-3.0535 2.6056,-5.2519 h -2.68702 c 0,1.3027 -0.61069,2.3613 -1.79135,3.1348 -1.26209,0.8957 -2.76845,1.3435 -4.51909,1.3435 -2.48345,0 -4.47837,-0.8142 -5.94402,-2.402 -1.38422,-1.6285 -2.11704,-3.5827 -2.19847,-5.9033 m 0.0814,-2.687 c 0.28498,-2.0764 0.93638,-3.7456 2.03562,-4.9263 1.38422,-1.547 3.257,-2.3206 5.57761,-2.3613 2.15776,0 3.94911,0.7736 5.29262,2.3206 1.13995,1.3435 1.70992,3.0128 1.75063,4.967 h -14.65648"
         style="font-style:normal;font-variant:normal;font-weight:normal;font-stretch:normal;font-size:40.71246719px;line-height:125%;font-family:'AR Gothic1 Medium Euro';-inkscape-font-specification:'AR Gothic1 Medium Euro';letter-spacing:0px;word-spacing:0px;fill:#ff7777;fill-opacity:1;stroke:none"
         id="path3006" />
      <circle
         r="1.5"
         id="path3012"
         style="fill:#ff7777;fill-opacity:1;stroke-width:0;stroke-miterlimit:4;stroke-dasharray:none"
         cx="34.105999"
         cy="1022.0313" />
    </g>
  </g>
</svg>
